<?xml version="1.0" encoding="UTF-8" standalone="no"?>
<!-- Generator: Adobe Illustrator 11 Build 196, SVG Export Plug-In . SVG Version: 6.0.0 Build 78)  -->

<svg
   xmlns:a="http://ns.adobe.com/AdobeSVGViewerExtensions/3.0/"
   xmlns:i="http://ns.adobe.com/AdobeIllustrator/10.0/"
   xmlns:dc="http://purl.org/dc/elements/1.1/"
   xmlns:cc="http://creativecommons.org/ns#"
   xmlns:rdf="http://www.w3.org/1999/02/22-rdf-syntax-ns#"
   xmlns:svg="http://www.w3.org/2000/svg"
   xmlns="http://www.w3.org/2000/svg"
   xmlns:xlink="http://www.w3.org/1999/xlink"
   xmlns:sodipodi="http://sodipodi.sourceforge.net/DTD/sodipodi-0.dtd"
   xmlns:inkscape="http://www.inkscape.org/namespaces/inkscape"
   id="svg2"
   overflow="visible"
   space="preserve"
   inkscape:export-ydpi="1709.6348"
   viewBox="0 0 115 115"
   inkscape:export-xdpi="1709.6348"
   inkscape:output_extension="org.inkscape.output.svg.inkscape"
   sodipodi:docname="favicon.svg"
   i:rulerOrigin="-100 -100"
   inkscape:export-filename="favicon.png"
   i:viewOrigin="107.4692 200.8896"
   inkscape:version="0.92.3 (2405546, 2018-03-11)"
   i:pageBounds="100 220 220 100"
   sodipodi:version="0.32"
   enable-background="new 0 0 104.772 88.281"
   version="1.1"
   width="115"
   height="115"
   style="overflow:visible">
  <defs
     id="defs61">
    <linearGradient
       id="linearGradient4818"
       y2="-286.57999"
       gradientUnits="userSpaceOnUse"
       y1="-286.60001"
       gradientTransform="matrix(133.94,0,0,81.591,41202,23421)"
       x2="-306.97"
       x1="-306.95999">
      <stop
         id="stop9-0"
         style="stop-color:#847069"
         offset="0" />
      <stop
         id="stop11-4"
         style="stop-color:#5D5255"
         offset="1" />
      <a:midPointStop
         style="stop-color:#847069"
         offset="0" />
      <a:midPointStop
         style="stop-color:#847069"
         offset="0.5" />
      <a:midPointStop
         style="stop-color:#5D5255"
         offset="1" />
    </linearGradient>
    <linearGradient
       id="linearGradient4822"
       y2="-286.26999"
       gradientUnits="userSpaceOnUse"
       y1="-286.56"
       gradientTransform="matrix(77.845,0,0,86.874,23974,24871)"
       x2="-306.92001"
       x1="-306.57999">
      <stop
         id="stop19-3"
         style="stop-color:#847069"
         offset="0" />
      <stop
         id="stop21-1"
         style="stop-color:#5D5255"
         offset="1" />
      <a:midPointStop
         style="stop-color:#847069"
         offset="0" />
      <a:midPointStop
         style="stop-color:#847069"
         offset="0.5" />
      <a:midPointStop
         style="stop-color:#5D5255"
         offset="1" />
    </linearGradient>
    <linearGradient
       id="linearGradient4826"
       y2="-285.98999"
       gradientUnits="userSpaceOnUse"
       y1="-286.16"
       gradientTransform="matrix(72.103,0,0,86.759,22287,24838)"
       x2="-308.07999"
       x1="-308.03">
      <stop
         id="stop29-7"
         style="stop-color:#A78972"
         offset="0" />
      <stop
         id="stop31-0"
         style="stop-color:#847069"
         offset="1" />
      <a:midPointStop
         style="stop-color:#A78972"
         offset="0" />
      <a:midPointStop
         style="stop-color:#A78972"
         offset="0.5" />
      <a:midPointStop
         style="stop-color:#847069"
         offset="1" />
    </linearGradient>
    <linearGradient
       id="linearGradient4830"
       y2="-285.92001"
       gradientUnits="userSpaceOnUse"
       y1="-285.75"
       gradientTransform="matrix(75.796,0,0,101.85,23344,29173)"
       x2="-307.34"
       x1="-307.67001">
      <stop
         id="stop39-1"
         style="stop-color:#785447"
         offset="0" />
      <stop
         id="stop41-1"
         style="stop-color:#633E35"
         offset="1" />
      <a:midPointStop
         style="stop-color:#785447"
         offset="0" />
      <a:midPointStop
         style="stop-color:#785447"
         offset="0.5" />
      <a:midPointStop
         style="stop-color:#633E35"
         offset="1" />
    </linearGradient>
    <linearGradient
       id="linearGradient4834"
       y2="-285.79999"
       gradientUnits="userSpaceOnUse"
       y1="-286.20999"
       gradientTransform="matrix(98.159,0,0,76.256,30187,21804)"
       x2="-307.14999"
       x1="-306.85999">
      <stop
         id="stop49-9"
         style="stop-color:#847069"
         offset="0" />
      <stop
         id="stop51-7"
         style="stop-color:#5D5255"
         offset="1" />
      <a:midPointStop
         style="stop-color:#847069"
         offset="0" />
      <a:midPointStop
         style="stop-color:#847069"
         offset="0.5" />
      <a:midPointStop
         style="stop-color:#5D5255"
         offset="1" />
    </linearGradient>
    <linearGradient
       id="linearGradient4838"
       y2="-285.45001"
       gradientUnits="userSpaceOnUse"
       y1="-285.59"
       gradientTransform="matrix(105.53,0,0,71.087,32436,20382)"
       x2="-306.25"
       x1="-306.42999">
      <stop
         id="stop59-9"
         style="stop-color:#7B6861"
         offset="0" />
      <stop
         id="stop61-8"
         style="stop-color:#664842"
         offset="1" />
      <a:midPointStop
         style="stop-color:#7B6861"
         offset="0" />
      <a:midPointStop
         style="stop-color:#7B6861"
         offset="0.5" />
      <a:midPointStop
         style="stop-color:#664842"
         offset="1" />
    </linearGradient>
    <linearGradient
       id="linearGradient4842"
       y2="-284.79999"
       gradientUnits="userSpaceOnUse"
       y1="-285.13"
       gradientTransform="matrix(91.326,0,0,73.736,28188,21084)"
       x2="-307.04001"
       x1="-307.31">
      <stop
         id="stop69-4"
         style="stop-color:#A78972"
         offset="0" />
      <stop
         id="stop71-4"
         style="stop-color:#997A67"
         offset="1" />
      <a:midPointStop
         style="stop-color:#A78972"
         offset="0" />
      <a:midPointStop
         style="stop-color:#A78972"
         offset="0.5" />
      <a:midPointStop
         style="stop-color:#997A67"
         offset="1" />
    </linearGradient>
    <linearGradient
       id="linearGradient4846"
       y2="-285.32999"
       gradientUnits="userSpaceOnUse"
       y1="-284.91"
       gradientTransform="matrix(75.502,0,0,105.82,23327,30302)"
       x2="-307.87"
       x1="-307.73001">
      <stop
         id="stop79-2"
         style="stop-color:#321B23"
         offset="0" />
      <stop
         id="stop81-8"
         style="stop-color:#432B30"
         offset="1" />
      <a:midPointStop
         style="stop-color:#321B23"
         offset="0" />
      <a:midPointStop
         style="stop-color:#321B23"
         offset="0.5" />
      <a:midPointStop
         style="stop-color:#432B30"
         offset="1" />
    </linearGradient>
    <linearGradient
       id="linearGradient4850"
       y2="-286.53"
       gradientUnits="userSpaceOnUse"
       y1="-286.35999"
       gradientTransform="matrix(107.73,0,0,72.264,33220,20717)"
       x2="-307.07001"
       x1="-307.26999">
      <stop
         id="stop89-7"
         style="stop-color:#4A2D2F"
         offset="0" />
      <stop
         id="stop91-0"
         style="stop-color:#3B2D3A"
         offset="1" />
      <a:midPointStop
         style="stop-color:#4A2D2F"
         offset="0" />
      <a:midPointStop
         style="stop-color:#4A2D2F"
         offset="0.5" />
      <a:midPointStop
         style="stop-color:#3B2D3A"
         offset="1" />
    </linearGradient>
    <linearGradient
       inkscape:collect="always"
       xlink:href="#XMLID_13_"
       id="linearGradient4925"
       gradientUnits="userSpaceOnUse"
       gradientTransform="matrix(75.796,0,0,101.85,23344,29173)"
       x1="-307.67001"
       y1="-285.75"
       x2="-307.34"
       y2="-285.92001" />
    <linearGradient
       inkscape:collect="always"
       xlink:href="#XMLID_15_"
       id="linearGradient4927"
       gradientUnits="userSpaceOnUse"
       gradientTransform="matrix(105.53,0,0,71.087,32436,20382)"
       x1="-306.42999"
       y1="-285.59"
       x2="-306.25"
       y2="-285.45001" />
    <linearGradient
       inkscape:collect="always"
       xlink:href="#XMLID_17_"
       id="linearGradient4929"
       gradientUnits="userSpaceOnUse"
       gradientTransform="matrix(75.502,0,0,105.82,23327,30302)"
       x1="-307.73001"
       y1="-284.91"
       x2="-307.87"
       y2="-285.32999" />
    <linearGradient
       inkscape:collect="always"
       xlink:href="#XMLID_18_"
       id="linearGradient4931"
       gradientUnits="userSpaceOnUse"
       gradientTransform="matrix(107.73,0,0,72.264,33220,20717)"
       x1="-307.26999"
       y1="-286.35999"
       x2="-307.07001"
       y2="-286.53" />
  </defs>
  <sodipodi:namedview
     id="base"
     bordercolor="#666666"
     inkscape:pageshadow="2"
     guidetolerance="10.0"
     pagecolor="#ffffff"
     gridtolerance="10.0"
     inkscape:zoom="7.3429176"
     objecttolerance="10.0"
     borderopacity="1.0"
     inkscape:current-layer="ƒŒƒCƒ_x201e__x0081__x005b__x0020_1"
     inkscape:cx="46.281067"
     inkscape:cy="61.309737"
     inkscape:window-y="-8"
     inkscape:window-x="-8"
     inkscape:window-height="1377"
     showgrid="false"
     inkscape:pageopacity="0.0"
     inkscape:window-width="2560"
     fit-margin-top="0"
     fit-margin-left="0"
     fit-margin-right="0"
     fit-margin-bottom="0"
     inkscape:window-maximized="1" />
  <metadata
     id="metadata58">
    <rdf:RDF>
      <cc:Work>
        <dc:format>image/svg+xml</dc:format>
        <dc:type
           rdf:resource="http://purl.org/dc/dcmitype/StillImage" />
        <cc:license
           rdf:resource="http://creativecommons.org/publicdomain/zero/1.0/" />
        <dc:publisher>
          <cc:Agent
             rdf:about="http://openclipart.org/">
            <dc:title>Openclipart</dc:title>
          </cc:Agent>
        </dc:publisher>
        <dc:title></dc:title>
        <dc:date>2013-02-23T07:27:02</dc:date>
        <dc:description />
        <dc:source>https://openclipart.org/detail/175284/box-by-andinuryadin-175284</dc:source>
        <dc:creator>
          <cc:Agent>
            <dc:title>andinuryadin</dc:title>
          </cc:Agent>
        </dc:creator>
        <dc:subject>
          <rdf:Bag>
            <rdf:li>box</rdf:li>
          </rdf:Bag>
        </dc:subject>
      </cc:Work>
      <cc:License
         rdf:about="http://creativecommons.org/publicdomain/zero/1.0/">
        <cc:permits
           rdf:resource="http://creativecommons.org/ns#Reproduction" />
        <cc:permits
           rdf:resource="http://creativecommons.org/ns#Distribution" />
        <cc:permits
           rdf:resource="http://creativecommons.org/ns#DerivativeWorks" />
      </cc:License>
    </rdf:RDF>
  </metadata>
  <g
     id="g5280"
     transform="translate(5.1144778,13.40676)">
    <g
       transform="translate(0.26398662,2.4557153e-4)"
       i:dimmedPercent="50"
       i:layer="yes"
       i:rgbTrio="#4F008000FFFF"
       i:knockout="Off"
       id="Layer_1-8">
      <g
         i:knockout="Off"
         id="path592-1">
        <linearGradient
           x1="-306.95999"
           x2="-306.97"
           gradientTransform="matrix(133.94,0,0,81.591,41202,23421)"
           y1="-286.60001"
           gradientUnits="userSpaceOnUse"
           y2="-286.57999"
           id="linearGradient4976">
          <stop
             offset="0"
             style="stop-color:#847069"
             id="stop4972" />
          <stop
             offset="1"
             style="stop-color:#5D5255"
             id="stop4974" />
          <a:midPointStop
             offset="0"
             style="stop-color:#847069" />
          <a:midPointStop
             offset="0.5"
             style="stop-color:#847069" />
          <a:midPointStop
             offset="1"
             style="stop-color:#5D5255" />
        </linearGradient>
        <path
           style="fill:url(#linearGradient4818)"
           inkscape:connector-curvature="0"
           d="m 54.949,48.022 -33.146,15.429 32.179,24.49 33.35,-24.49 c 0.001,0 -32.433,-15.275 -32.383,-15.429 z"
           id="path13-1" />
        <path
           style="opacity:0.60230001;fill:none;stroke:#000000;stroke-width:0.36250001"
           inkscape:connector-curvature="0"
           enable-background="new    "
           i:knockout="Off"
           i:isolated="yes"
           d="m 54.949,48.022 -33.146,15.429 32.179,24.49 33.35,-24.49 c 0.001,0 -32.433,-15.275 -32.383,-15.429 z"
           id="path15-6" />
      </g>
      <g
         i:knockout="Off"
         id="path586-4">
        <linearGradient
           x1="-306.57999"
           x2="-306.92001"
           gradientTransform="matrix(77.845,0,0,86.874,23974,24871)"
           y1="-286.56"
           gradientUnits="userSpaceOnUse"
           y2="-286.26999"
           id="linearGradient4985">
          <stop
             offset="0"
             style="stop-color:#847069"
             id="stop4981" />
          <stop
             offset="1"
             style="stop-color:#5D5255"
             id="stop4983" />
          <a:midPointStop
             offset="0"
             style="stop-color:#847069" />
          <a:midPointStop
             offset="0.5"
             style="stop-color:#847069" />
          <a:midPointStop
             offset="1"
             style="stop-color:#5D5255" />
        </linearGradient>
        <path
           style="fill:url(#linearGradient4822)"
           inkscape:connector-curvature="0"
           d="M 16.813,38.552 53.906,20.897 54.898,47.92 21.803,63.399 c 0,0 -4.786,-24.644 -4.99,-24.847 z"
           id="path23-6" />
        <path
           style="opacity:0.60230001;fill:none;stroke:#000000;stroke-width:0.36250001"
           inkscape:connector-curvature="0"
           enable-background="new    "
           i:knockout="Off"
           i:isolated="yes"
           d="M 16.813,38.552 53.906,20.897 54.898,47.92 21.803,63.399 c 0,0 -4.786,-24.644 -4.99,-24.847 z"
           id="path25-4" />
      </g>
      <g
         i:knockout="Off"
         id="path587-4">
        <linearGradient
           x1="-308.03"
           x2="-308.07999"
           gradientTransform="matrix(72.103,0,0,86.759,22287,24838)"
           y1="-286.16"
           gradientUnits="userSpaceOnUse"
           y2="-285.98999"
           id="linearGradient4994">
          <stop
             offset="0"
             style="stop-color:#A78972"
             id="stop4990" />
          <stop
             offset="1"
             style="stop-color:#847069"
             id="stop4992" />
          <a:midPointStop
             offset="0"
             style="stop-color:#A78972" />
          <a:midPointStop
             offset="0.5"
             style="stop-color:#A78972" />
          <a:midPointStop
             offset="1"
             style="stop-color:#847069" />
        </linearGradient>
        <path
           style="fill:url(#linearGradient4826)"
           inkscape:connector-curvature="0"
           d="M 87.128,63.328 89.173,36.268 53.898,20.884 54.919,47.92 c 0,0 32.107,15.616 32.209,15.408 z"
           id="path33-8" />
        <path
           style="opacity:0.60230001;fill:none;stroke:#000000;stroke-width:0.3581"
           inkscape:connector-curvature="0"
           enable-background="new    "
           i:knockout="Off"
           i:isolated="yes"
           d="M 87.128,63.328 89.173,36.268 53.898,20.884 54.919,47.92 c 0,0 32.107,15.616 32.209,15.408 z"
           id="path35-5" />
      </g>
      <g
         i:knockout="Off"
         id="path523-9">
        <linearGradient
           x1="-306.85999"
           x2="-307.14999"
           gradientTransform="matrix(98.159,0,0,76.256,30187,21804)"
           y1="-286.20999"
           gradientUnits="userSpaceOnUse"
           y2="-285.79999"
           id="linearGradient5012">
          <stop
             offset="0"
             style="stop-color:#847069"
             id="stop5008" />
          <stop
             offset="1"
             style="stop-color:#5D5255"
             id="stop5010" />
          <a:midPointStop
             offset="0"
             style="stop-color:#847069" />
          <a:midPointStop
             offset="0.5"
             style="stop-color:#847069" />
          <a:midPointStop
             offset="1"
             style="stop-color:#5D5255" />
        </linearGradient>
        <path
           style="fill:url(#linearGradient4834)"
           inkscape:connector-curvature="0"
           d="M 16.742,38.272 C 16.844,38.679 45.924,24.647 53.894,20.901 51.913,17.146 43.313,0.973 43.313,0.973 L 5.87,15.446 17.103,38.057"
           id="path53-3" />
        <path
           style="opacity:0.60230001;fill:none;stroke:#000000;stroke-width:0.36250001;stroke-linecap:round;stroke-linejoin:round"
           inkscape:connector-curvature="0"
           enable-background="new    "
           i:knockout="Off"
           i:isolated="yes"
           d="M 16.742,38.272 C 16.844,38.679 45.924,24.647 53.894,20.901 51.913,17.146 43.313,0.973 43.313,0.973 L 5.87,15.446 17.103,38.057"
           id="path55-4" />
      </g>
      <g
         i:knockout="Off"
         id="path530-0">
        <linearGradient
           x1="-307.31"
           x2="-307.04001"
           gradientTransform="matrix(91.326,0,0,73.736,28188,21084)"
           y1="-285.13"
           gradientUnits="userSpaceOnUse"
           y2="-284.79999"
           id="linearGradient5030">
          <stop
             offset="0"
             style="stop-color:#A78972"
             id="stop5026" />
          <stop
             offset="1"
             style="stop-color:#997A67"
             id="stop5028" />
          <a:midPointStop
             offset="0"
             style="stop-color:#A78972" />
          <a:midPointStop
             offset="0.5"
             style="stop-color:#A78972" />
          <a:midPointStop
             offset="1"
             style="stop-color:#997A67" />
        </linearGradient>
        <polyline
           style="fill:url(#linearGradient4842)"
           points="53.955 20.864 62.826 0.181 98.614 12.351 89.108 36.256 53.933 20.873"
           id="polyline73-0" />
        <polyline
           style="opacity:0.60230001;fill:none;stroke:#000000;stroke-width:0.36250001;stroke-linecap:round;stroke-linejoin:round"
           enable-background="new    "
           points="53.955 20.864 62.826 0.181 98.614 12.351 89.108 36.256 53.933 20.873"
           i:knockout="Off"
           i:isolated="yes"
           id="polyline75-0" />
      </g>
    </g>
    <g
       id="ƒŒƒCƒ_x201e__x0081__x005b__x0020_1"
       transform="matrix(0.07263804,0.01946331,-0.01946331,0.07263804,24.043296,1.7464494)">
      <g
         id="g14">
        <g
           id="g6">
          <path
             style="fill:#000000"
             inkscape:connector-curvature="0"
             id="path2"
             d="m 883.967,491.389 c 59.616,-72.143 72.576,-174.526 58.752,-243.646 -12.96,-66.959 -61.776,-101.087 -144.287,-101.087 -16.416,0 -32.4,1.296 -46.223,2.592 -25.056,-49.679 -73.872,-79.487 -131.327,-79.487 -95.903,0 -196.127,84.239 -201.311,245.374 -3.024,95.471 16.416,165.886 57.888,209.518 53.135,55.727 131.327,57.023 177.982,57.887 3.888,0 7.776,0 11.232,0 93.744,0 166.751,-30.671 216.862,-91.583 z M 739.249,162.64 v 0 l 2.592,6.048 6.48,-0.864 c 14.687,-1.728 31.967,-3.456 50.543,-3.456 73.872,0 115.343,28.512 127.007,86.831 12.528,65.232 0.432,161.135 -55.295,228.958 -46.656,56.592 -114.911,85.104 -203.039,85.104 -3.456,0 -7.344,0 -10.8,0 -47.087,-0.864 -117.503,-2.16 -165.454,-52.272 -38.016,-40.176 -56.16,-106.271 -53.136,-196.99 4.752,-149.903 95.903,-228.094 183.599,-228.094 52.703,0 97.199,28.079 118.367,74.735 z" />
          <path
             style="fill:#87d656"
             inkscape:connector-curvature="0"
             id="path4"
             d="m 746.161,162.208 c 58.751,-6.48 163.726,-13.824 184.03,88.991 21.6,110.591 -25.92,325.725 -273.453,319.245 C 571.202,569.148 425.188,563.1 432.963,316.431 441.171,64.577 683.521,23.537 746.161,162.208 Z" />
        </g>
        <path
           style="fill:#2d161c"
           inkscape:connector-curvature="0"
           id="path8"
           d="m 717.217,214.48 c 22.464,-20.304 66.959,-58.32 68.255,-133.487 -3.888,-54 -13.391,-70.416 -23.759,-68.688 -12.528,2.16 -5.184,15.552 3.456,47.088 8.639,31.536 4.751,104.975 -55.728,152.063 8.208,2.592 8.208,2.592 8.208,2.592 z" />
        <path
           style="fill:#ffffff"
           inkscape:connector-curvature="0"
           id="path10"
           d="m 658.897,139.312 c 8.64,14.256 18.144,28.08 27.648,40.608 9.936,12.528 20.736,24.624 34.56,30.672 13.392,6.048 29.808,8.64 45.791,10.8 15.984,1.728 32.4,3.455 49.248,4.751 -16.416,3.888 -33.264,5.616 -50.111,5.184 -16.848,-0.432 -33.696,-2.16 -50.976,-9.071 -16.848,-7.776 -28.512,-22.464 -37.152,-36.72 -9.072,-14.688 -15.552,-30.24 -19.44,-46.656 z" />
        <path
           style="fill-opacity:0;stroke:#ffffff;stroke-width:24;stroke-linecap:round;stroke-linejoin:round"
           inkscape:connector-curvature="0"
           id="path12"
           d="m 882.24,325.503 c 0,0 17.279,85.535 -76.896,143.422" />
      </g>
      <g
         id="g32">
        <g
           id="g20">
          <path
             style="fill:#b50700"
             inkscape:connector-curvature="0"
             id="path16"
             d="M 540.099,412.766 C 429.075,335.871 355.636,404.99 332.74,433.502 l -0.432,0.432 c -35.423,-12.528 -136.079,-34.128 -187.054,86.831 -50.976,121.391 69.551,385.341 315.789,330.045 0,0 0,-0.432 0,-0.432 235.87,-78.623 190.079,-360.717 79.487,-437.612 z" />
          <path
             style="fill:#000000"
             inkscape:connector-curvature="0"
             id="path18"
             d="m 461.475,855.13 c 0.864,0 1.296,-0.864 2.16,-1.296 C 558.674,821.435 618.722,751.883 632.114,657.708 645.938,560.941 607.49,454.238 542.69,409.31 508.131,385.55 474.435,373.454 441.603,373.454 c -57.023,0 -95.471,37.152 -111.023,55.728 -13.392,-4.32 -32.831,-9.072 -55.727,-9.072 -42.336,0 -99.791,17.28 -134.351,99.359 -25.056,59.616 -9.072,151.631 38.88,223.774 29.807,44.928 97.199,119.663 215.566,119.663 v 0 c 21.168,0 43.631,-2.592 66.095,-7.776 z M 330.58,438.254 v 0 c 1.728,0.432 4.32,-0.432 5.184,-1.728 13.392,-16.416 50.112,-54 105.407,-54 30.672,0 63.072,11.664 95.904,34.56 61.343,42.768 98.927,148.175 85.967,240.19 -13.392,91.583 -71.712,158.975 -164.591,189.646 -0.432,0 -0.864,0.432 -1.296,0.864 -21.168,4.752 -41.903,6.912 -62.207,6.912 v 0 c -114.479,0 -179.711,-72.575 -208.654,-115.775 -46.224,-69.983 -62.208,-158.542 -38.016,-215.566 32.832,-77.759 86.831,-94.175 126.143,-94.175 22.896,0 42.767,5.184 55.727,9.936 z" />
        </g>
        <g
           id="g26">
          <path
             style="fill:#000000"
             inkscape:connector-curvature="0"
             id="path22"
             d="m 311.572,359.63 -50.543,-3.456 c 0,0 -35.424,39.744 -92.447,38.88 -57.024,-0.864 -84.672,-29.808 -103.68,-50.111 -19.007,-20.304 -53.567,-25.92 -53.567,-25.92 0,0 42.768,0 59.183,-9.504 16.848,-9.504 49.248,-25.488 98.496,-21.6 66.527,5.184 93.311,58.752 93.311,58.752 l 47.951,3.024 z"
             sodipodi:nodetypes="ccsccccccc" />
          <path
             style="fill:#2d161c"
             inkscape:connector-curvature="0"
             id="path24"
             d="m 337.492,440.845 c -1.296,-10.799 -12.96,-96.335 -39.743,-144.718 -20.304,-36.72 -51.408,-67.824 -61.344,-67.824 -9.936,0 -15.12,9.504 -2.16,20.304 12.96,10.8 81.647,73.007 96.335,200.446 11.664,2.16 7.344,-7.776 7.344,-7.776 z" />
        </g>
        <path
           style="fill:#b50700"
           inkscape:connector-curvature="0"
           id="path28"
           d="m 242.885,430.046 c 15.984,5.184 31.968,9.504 47.519,12.96 15.984,3.024 31.968,5.184 46.224,0.864 14.256,-4.32 28.512,-12.96 41.904,-21.6 13.392,-9.072 27.215,-18.576 40.607,-28.512 -9.936,13.392 -21.599,25.92 -34.559,36.72 -12.96,10.8 -26.784,20.736 -44.496,26.352 -18.144,4.752 -35.856,1.296 -51.839,-3.888 -16.416,-5.184 -31.104,-12.96 -44.928,-22.464 z" />
        <path
           style="fill-opacity:0;stroke:#ffdbdf;stroke-width:24;stroke-linecap:round;stroke-linejoin:round"
           inkscape:connector-curvature="0"
           id="path30"
           d="m 565.586,522.493 c 0,0 43.632,97.199 -7.344,208.222" />
      </g>
    </g>
    <g
       transform="translate(-1.3384331e-5,-0.09475443)"
       i:dimmedPercent="50"
       i:layer="yes"
       i:rgbTrio="#4F008000FFFF"
       i:knockout="Off"
       id="Layer_1">
      <g
         i:knockout="Off"
         id="path512">
        <linearGradient
           x1="-307.67001"
           x2="-307.34"
           gradientTransform="matrix(75.796,0,0,101.85,23344,29173)"
           y1="-285.75"
           gradientUnits="userSpaceOnUse"
           y2="-285.92001"
           id="XMLID_13_">
          <stop
             offset="0"
             style="stop-color:#785447"
             id="stop39" />
          <stop
             offset="1"
             style="stop-color:#633E35"
             id="stop41" />
          <a:midPointStop
             offset="0"
             style="stop-color:#785447" />
          <a:midPointStop
             offset="0.5"
             style="stop-color:#785447" />
          <a:midPointStop
             offset="1"
             style="stop-color:#633E35" />
        </linearGradient>
        <path
           style="fill:url(#linearGradient4925)"
           inkscape:connector-curvature="0"
           d="M 21.639,63.619 53.681,87.885 52.242,60.954 16.599,38.057 c 0,0 5.04,25.632 5.04,25.562 z"
           id="path43" />
        <path
           style="opacity:0.60230001;fill:none;stroke:#000000;stroke-width:0.36250001;stroke-linecap:round;stroke-linejoin:round"
           inkscape:connector-curvature="0"
           enable-background="new    "
           i:knockout="Off"
           i:isolated="yes"
           d="M 21.639,63.619 53.681,87.885 52.242,60.954 16.599,38.057 c 0,0 5.04,25.632 5.04,25.562 z"
           id="path45" />
      </g>
      <g
         i:knockout="Off"
         id="path517">
        <linearGradient
           x1="-306.42999"
           x2="-306.25"
           gradientTransform="matrix(105.53,0,0,71.087,32436,20382)"
           y1="-285.59"
           gradientUnits="userSpaceOnUse"
           y2="-285.45001"
           id="XMLID_15_">
          <stop
             offset="0"
             style="stop-color:#7B6861"
             id="stop59" />
          <stop
             offset="1"
             style="stop-color:#664842"
             id="stop61" />
          <a:midPointStop
             offset="0"
             style="stop-color:#7B6861" />
          <a:midPointStop
             offset="0.5"
             style="stop-color:#7B6861" />
          <a:midPointStop
             offset="1"
             style="stop-color:#664842" />
        </linearGradient>
        <path
           style="fill:url(#linearGradient4927)"
           inkscape:connector-curvature="0"
           d="M 16.67,38.417 0.181,26.032 34.239,46.408 51.809,60.81 c 0,0 -35.427,-22.538 -35.139,-22.393 z"
           id="path63" />
        <path
           style="opacity:0.60230001;fill:none;stroke:#000000;stroke-width:0.36250001;stroke-linecap:round;stroke-linejoin:round"
           inkscape:connector-curvature="0"
           enable-background="new    "
           i:knockout="Off"
           i:isolated="yes"
           d="M 16.67,38.417 0.181,26.032 34.239,46.408 51.809,60.81 c 0,0 -35.427,-22.538 -35.139,-22.393 z"
           id="path65" />
      </g>
      <g
         i:knockout="Off"
         id="path532">
        <linearGradient
           x1="-307.73001"
           x2="-307.87"
           gradientTransform="matrix(75.502,0,0,105.82,23327,30302)"
           y1="-284.91"
           gradientUnits="userSpaceOnUse"
           y2="-285.32999"
           id="XMLID_17_">
          <stop
             offset="0"
             style="stop-color:#321B23"
             id="stop79" />
          <stop
             offset="1"
             style="stop-color:#432B30"
             id="stop81" />
          <a:midPointStop
             offset="0"
             style="stop-color:#321B23" />
          <a:midPointStop
             offset="0.5"
             style="stop-color:#321B23" />
          <a:midPointStop
             offset="1"
             style="stop-color:#432B30" />
        </linearGradient>
        <path
           style="fill:url(#linearGradient4929)"
           inkscape:connector-curvature="0"
           d="M 89.108,36.328 52.169,61.026 53.898,88.1 87.596,63.546 c 0,10e-4 1.368,-27.003 1.512,-27.218 z"
           id="path83" />
        <path
           style="opacity:0.60230001;fill:none;stroke:#000000;stroke-width:0.36250001;stroke-linecap:round;stroke-linejoin:round"
           inkscape:connector-curvature="0"
           enable-background="new    "
           i:knockout="Off"
           i:isolated="yes"
           d="M 89.108,36.328 52.169,61.026 53.898,88.1 87.596,63.546 c 0,10e-4 1.368,-27.003 1.512,-27.218 z"
           id="path85" />
      </g>
      <g
         i:knockout="Off"
         id="path537">
        <linearGradient
           x1="-307.26999"
           x2="-307.07001"
           gradientTransform="matrix(107.73,0,0,72.264,33220,20717)"
           y1="-286.35999"
           gradientUnits="userSpaceOnUse"
           y2="-286.53"
           id="XMLID_18_">
          <stop
             offset="0"
             style="stop-color:#4A2D2F"
             id="stop89" />
          <stop
             offset="1"
             style="stop-color:#3B2D3A"
             id="stop91" />
          <a:midPointStop
             offset="0"
             style="stop-color:#4A2D2F" />
          <a:midPointStop
             offset="0.5"
             style="stop-color:#4A2D2F" />
          <a:midPointStop
             offset="1"
             style="stop-color:#3B2D3A" />
        </linearGradient>
        <path
           style="fill:url(#linearGradient4931)"
           inkscape:connector-curvature="0"
           d="M 51.881,60.882 67.073,48.138 104.59,25.527 89.252,37.985 c 0,0 -37.083,22.897 -37.371,22.897 z"
           id="path93" />
        <path
           style="opacity:0.60230001;fill:none;stroke:#000000;stroke-width:0.36250001;stroke-linecap:round;stroke-linejoin:round"
           inkscape:connector-curvature="0"
           enable-background="new    "
           i:knockout="Off"
           i:isolated="yes"
           d="M 51.881,60.882 67.073,48.138 104.59,25.527 89.252,37.985 c 0,0 -37.083,22.897 -37.371,22.897 z"
           id="path95" />
      </g>
    </g>
  </g>
</svg>
